<?xml version="1.0" standalone="no"?>
<svg xmlns:xlink="http://www.w3.org/1999/xlink" id="wave" style="transform:rotate(180deg); transition: 0.3s" viewBox="0 0 1440 290" version="1.1" xmlns="http://www.w3.org/2000/svg"><defs><linearGradient id="sw-gradient-0" x1="0" x2="0" y1="1" y2="0"><stop stop-color="rgba(120, 0, 0, 1)" offset="0%"/><stop stop-color="rgba(120, 0, 0, 1)" offset="100%"/></linearGradient></defs><path style="transform:translate(0, 0px); opacity:1" fill="url(#sw-gradient-0)" d="M0,0L60,19.3C120,39,240,77,360,87C480,97,600,77,720,72.5C840,68,960,77,1080,101.5C1200,126,1320,164,1440,149.8C1560,135,1680,68,1800,77.3C1920,87,2040,174,2160,174C2280,174,2400,87,2520,87C2640,87,2760,174,2880,203C3000,232,3120,203,3240,159.5C3360,116,3480,58,3600,62.8C3720,68,3840,135,3960,145C4080,155,4200,106,4320,87C4440,68,4560,77,4680,101.5C4800,126,4920,164,5040,154.7C5160,145,5280,87,5400,72.5C5520,58,5640,87,5760,87C5880,87,6000,58,6120,72.5C6240,87,6360,145,6480,154.7C6600,164,6720,126,6840,130.5C6960,135,7080,184,7200,198.2C7320,213,7440,193,7560,183.7C7680,174,7800,174,7920,174C8040,174,8160,174,8280,174C8400,174,8520,174,8580,174L8640,174L8640,290L8580,290C8520,290,8400,290,8280,290C8160,290,8040,290,7920,290C7800,290,7680,290,7560,290C7440,290,7320,290,7200,290C7080,290,6960,290,6840,290C6720,290,6600,290,6480,290C6360,290,6240,290,6120,290C6000,290,5880,290,5760,290C5640,290,5520,290,5400,290C5280,290,5160,290,5040,290C4920,290,4800,290,4680,290C4560,290,4440,290,4320,290C4200,290,4080,290,3960,290C3840,290,3720,290,3600,290C3480,290,3360,290,3240,290C3120,290,3000,290,2880,290C2760,290,2640,290,2520,290C2400,290,2280,290,2160,290C2040,290,1920,290,1800,290C1680,290,1560,290,1440,290C1320,290,1200,290,1080,290C960,290,840,290,720,290C600,290,480,290,360,290C240,290,120,290,60,290L0,290Z"/></svg>