<?xml version="1.0" standalone="no"?>
<svg xmlns:xlink="http://www.w3.org/1999/xlink" id="wave" style="transform:rotate(180deg); transition: 0.3s" viewBox="0 0 1440 360" version="1.1" xmlns="http://www.w3.org/2000/svg"><defs><linearGradient id="sw-gradient-0" x1="0" x2="0" y1="1" y2="0"><stop stop-color="rgba(120, 0, 0, 1)" offset="0%"/><stop stop-color="rgba(193, 18, 31, 1)" offset="100%"/></linearGradient></defs><path style="transform:translate(0, 0px); opacity:1" fill="url(#sw-gradient-0)" d="M0,0L60,24C120,48,240,96,360,108C480,120,600,96,720,90C840,84,960,96,1080,126C1200,156,1320,204,1440,186C1560,168,1680,84,1800,96C1920,108,2040,216,2160,216C2280,216,2400,108,2520,108C2640,108,2760,216,2880,252C3000,288,3120,252,3240,198C3360,144,3480,72,3600,78C3720,84,3840,168,3960,180C4080,192,4200,132,4320,108C4440,84,4560,96,4680,126C4800,156,4920,204,5040,192C5160,180,5280,108,5400,90C5520,72,5640,108,5760,108C5880,108,6000,72,6120,90C6240,108,6360,180,6480,192C6600,204,6720,156,6840,162C6960,168,7080,228,7200,246C7320,264,7440,240,7560,228C7680,216,7800,216,7920,216C8040,216,8160,216,8280,216C8400,216,8520,216,8580,216L8640,216L8640,360L8580,360C8520,360,8400,360,8280,360C8160,360,8040,360,7920,360C7800,360,7680,360,7560,360C7440,360,7320,360,7200,360C7080,360,6960,360,6840,360C6720,360,6600,360,6480,360C6360,360,6240,360,6120,360C6000,360,5880,360,5760,360C5640,360,5520,360,5400,360C5280,360,5160,360,5040,360C4920,360,4800,360,4680,360C4560,360,4440,360,4320,360C4200,360,4080,360,3960,360C3840,360,3720,360,3600,360C3480,360,3360,360,3240,360C3120,360,3000,360,2880,360C2760,360,2640,360,2520,360C2400,360,2280,360,2160,360C2040,360,1920,360,1800,360C1680,360,1560,360,1440,360C1320,360,1200,360,1080,360C960,360,840,360,720,360C600,360,480,360,360,360C240,360,120,360,60,360L0,360Z"/></svg>