<?xml version="1.0" standalone="no"?>
<svg xmlns:xlink="http://www.w3.org/1999/xlink" id="wave" style="transform:rotate(180deg); transition: 0.3s" viewBox="0 0 1440 340" version="1.1" xmlns="http://www.w3.org/2000/svg"><defs><linearGradient id="sw-gradient-0" x1="0" x2="0" y1="1" y2="0"><stop stop-color="rgba(120, 0, 0, 1)" offset="0%"/><stop stop-color="rgba(193, 18, 31, 1)" offset="100%"/></linearGradient></defs><path style="transform:translate(0, 0px); opacity:1" fill="url(#sw-gradient-0)" d="M0,204L60,170C120,136,240,68,360,85C480,102,600,204,720,215.3C840,227,960,147,1080,102C1200,57,1320,45,1440,56.7C1560,68,1680,102,1800,130.3C1920,159,2040,181,2160,192.7C2280,204,2400,204,2520,192.7C2640,181,2760,159,2880,136C3000,113,3120,91,3240,79.3C3360,68,3480,68,3600,73.7C3720,79,3840,91,3960,130.3C4080,170,4200,238,4320,255C4440,272,4560,238,4680,232.3C4800,227,4920,249,5040,215.3C5160,181,5280,91,5400,62.3C5520,34,5640,68,5760,96.3C5880,125,6000,147,6120,141.7C6240,136,6360,102,6480,124.7C6600,147,6720,227,6840,215.3C6960,204,7080,102,7200,102C7320,102,7440,204,7560,226.7C7680,249,7800,193,7920,187C8040,181,8160,227,8280,226.7C8400,227,8520,181,8580,158.7L8640,136L8640,340L8580,340C8520,340,8400,340,8280,340C8160,340,8040,340,7920,340C7800,340,7680,340,7560,340C7440,340,7320,340,7200,340C7080,340,6960,340,6840,340C6720,340,6600,340,6480,340C6360,340,6240,340,6120,340C6000,340,5880,340,5760,340C5640,340,5520,340,5400,340C5280,340,5160,340,5040,340C4920,340,4800,340,4680,340C4560,340,4440,340,4320,340C4200,340,4080,340,3960,340C3840,340,3720,340,3600,340C3480,340,3360,340,3240,340C3120,340,3000,340,2880,340C2760,340,2640,340,2520,340C2400,340,2280,340,2160,340C2040,340,1920,340,1800,340C1680,340,1560,340,1440,340C1320,340,1200,340,1080,340C960,340,840,340,720,340C600,340,480,340,360,340C240,340,120,340,60,340L0,340Z"/></svg>