<?xml version="1.0" encoding="utf-8"?>
<!-- Generator: Adobe Illustrator 27.5.0, SVG Export Plug-In . SVG Version: 6.00 Build 0)  -->
<svg version="1.1" xmlns="http://www.w3.org/2000/svg" xmlns:xlink="http://www.w3.org/1999/xlink" x="0px" y="0px"
	 viewBox="0 0 500 500" style="enable-background:new 0 0 500 500;" xml:space="preserve">
<g id="Floor">
	<path id="Floor_00000168086210117410600670000010028987196619418044_" style="fill:#F5F5F5;" d="M94.443,250.529
		c-85.909,49.6-85.907,130.018,0.005,179.618s225.2,49.6,311.11,0c85.909-49.6,85.907-130.018-0.005-179.618
		C319.641,200.929,180.352,200.929,94.443,250.529z"/>
</g>
<g id="Shadow">
	<path id="Shadow_00000145040923784248500280000015036155147170698425_" style="fill:#E0E0E0;" d="M153.022,280.648
		c-60.02,34.655-60.018,90.838,0.006,125.491c60.023,34.651,157.338,34.65,217.358-0.003c60.02-34.653,60.019-90.837-0.005-125.49
		C310.357,245.992,213.042,245.994,153.022,280.648z"/>
</g>
<g id="Pan_00000048491860029895076160000005427405628735456386_">
	<g id="Pan">
		<g>
			<g>
				<path style="fill:#263238;" d="M77.696,105.896c-6.577-5.658-18.588-7.957-26.819-5.092c-4.084,1.428-6.43,3.859-6.96,6.64
					c-0.244,1.268-2.018,11.042-2.264,12.269c-0.567,2.815,0.721,5.977,4.032,8.82l62.144,53.557l2.149-12.335l29.402-10.701
					L77.696,105.896z M69.921,117.213c-4.042,1.415-9.962,0.271-13.176-2.495c-0.07-0.063-0.118-0.132-0.178-0.193
					c0.066-0.029,0.122-0.059,0.197-0.086c4.042-1.416,9.962-0.271,13.202,2.52c0.06,0.061,0.102,0.109,0.152,0.168
					C70.052,117.156,69.996,117.186,69.921,117.213z"/>
				<path style="fill:#455A64;" d="M77.696,105.896c-6.577-5.658-18.588-7.957-26.819-5.092c-8.223,2.877-9.508,9.822-2.943,15.488
					l62.043,53.463l29.402-10.701L77.696,105.896z M69.921,117.213c-4.042,1.415-9.962,0.271-13.176-2.495
					c-3.248-2.802-2.625-6.222,1.417-7.637c4.04-1.406,9.961-0.261,13.201,2.529C74.576,112.376,73.961,115.807,69.921,117.213z"/>
				<polygon style="fill:#37474F;" points="107.803,182.086 137.205,171.384 139.38,159.053 109.978,169.755 				"/>
			</g>
			<g>
				<path style="fill:#E0E0E0;" d="M176.768,204.75c0.865,0.726,1.251,2.024,0.951,3.721c-0.599,3.394-3.709,7.102-6.948,8.28
					c-1.619,0.59-2.964,0.435-3.829-0.291c-0.525-0.441-47.095-39.517-47.62-39.958c-0.865-0.726-1.251-2.024-0.951-3.721
					c0.599-3.395,3.71-7.102,6.948-8.281c1.619-0.59,2.964-0.435,3.829,0.291C129.673,165.233,176.242,204.309,176.768,204.75z"/>
				<path style="opacity:0.2;" d="M119.573,169.634c-0.593,1.023-1.018,2.1-1.203,3.147c-0.299,1.697,0.086,2.995,0.951,3.721
					c0.525,0.441,47.095,39.517,47.62,39.958c0.865,0.726,2.21,0.88,3.829,0.291c0.73-0.266,1.452-0.665,2.142-1.155
					L119.573,169.634z"/>
				<path style="fill:#455A64;" d="M170.771,216.751c-1.619,0.589-2.964,0.435-3.829-0.291c-0.865-0.726-1.251-2.024-0.951-3.721
					c0.599-3.394,3.709-7.102,6.948-8.28c1.619-0.589,2.964-0.435,3.829,0.291c0.865,0.726,1.25,2.024,0.951,3.721
					C177.12,211.865,174.01,215.572,170.771,216.751z"/>
			</g>
			<g>
				<path style="fill:#BA68C8;" d="M423.305,290.672c3.946-20.78-5.837-44.163-30.288-65.229
					c-48.891-42.13-137.932-59.037-198.869-37.759c-30.471,10.638-48.144,28.811-52.089,49.588
					c-2.346,12.359-2.767,35.275-2.586,46.324c0.141,17.649,9.986,36.608,30.106,53.945
					c47.296,40.754,133.421,57.106,192.365,36.524c26.493-9.251,42.98-24.391,48.816-41.955l0.004,0.001
					C414.96,320.012,420.91,303.288,423.305,290.672z"/>
				<path style="opacity:0.3;fill:#FFFFFF;" d="M379.452,279.585c6.282,8.342,31.223,35.283,15.32,62.518
					c-11.358,19.453-31.111,30.286-51.522,37.074c6.461-1.34,12.721-3.027,18.693-5.112c26.493-9.251,42.98-24.391,48.816-41.955
					l0.004,0.001c4.197-12.099,10.147-28.823,12.542-41.439c1.595-8.402,0.944-17.23-2.012-26.159
					C411.368,269.527,379.452,279.585,379.452,279.585z"/>
				<path style="opacity:0.15;" d="M241.093,338.477l25.904-159.552c-25.793-1.54-51.111,1.168-72.849,8.758
					c-30.471,10.638-48.144,28.811-52.089,49.588c-2.346,12.359-2.767,35.275-2.586,46.324c0.141,17.649,9.986,36.608,30.106,53.945
					c33.461,28.832,86.351,45.429,135.307,45.396C234.983,378.771,204.334,338.154,241.093,338.477z"/>
				<path style="opacity:0.15;" d="M172.341,302.5l21.542-114.72c-30.306,10.651-47.89,28.776-51.823,49.492
					c-2.346,12.359-2.767,35.275-2.586,46.324c0.141,17.649,9.986,36.608,30.106,53.945c4.781,4.119,9.969,7.98,15.475,11.587
					C170.595,331.556,163.893,312.609,172.341,302.5z"/>
				<path style="fill:#455A64;" d="M393.018,225.444c24.448,21.066,34.231,44.451,30.286,65.228
					c-3.946,20.777-21.621,38.949-52.091,49.588c-60.938,21.279-149.977,4.373-198.873-37.76
					c-24.448-21.066-34.231-44.451-30.285-65.228c3.946-20.778,21.621-38.948,52.09-49.588
					C255.085,166.406,344.123,183.311,393.018,225.444z"/>
				<path style="fill:#263238;" d="M386.121,230.225c23.159,19.14,32.549,40.245,29.006,58.895
					c-3.542,18.65-20.015,34.845-48.579,44.164c-57.129,18.639-140.99,2.716-187.309-35.564
					c-23.159-19.14-32.549-40.245-29.007-58.895c3.542-18.65,20.015-34.845,48.579-44.164
					C255.94,176.021,339.802,191.944,386.121,230.225z"/>
				<path style="opacity:0.2;" d="M213.45,190.774c-5.032,1.073-9.933,2.351-14.638,3.886
					c-28.565,9.319-45.037,25.514-48.579,44.164c-3.542,18.65,5.847,39.755,29.007,58.895c4.235,3.5,8.79,6.808,13.603,9.925
					L213.45,190.774z"/>
				<path style="opacity:0.2;" d="M372.464,220.605c4.361,2.729,8.53,5.606,12.426,8.658c23.655,18.527,33.595,39.379,30.544,58.116
					c-3.05,18.737-19.092,35.358-47.401,45.422c-5.176,1.84-10.588,3.391-16.177,4.674L372.464,220.605z"/>
				<path style="fill:#37474F;" d="M193.254,223.927c57.129-18.639,140.991-2.716,187.31,35.564
					c17.067,14.104,26.631,29.275,29.076,43.746c-7.58,12.568-22.04,23.179-43.092,30.047c-57.13,18.639-140.99,2.716-187.31-35.564
					c-17.068-14.105-26.631-29.275-29.077-43.746C157.743,241.405,172.202,230.795,193.254,223.927z"/>
				<path style="fill:#263238;" d="M205.924,302.191c-48.318-39.658-19.772-74.429,23.872-85.341
					c-12.892,1.077-25.244,3.391-36.542,7.077c-21.052,6.868-35.511,17.479-43.092,30.046c2.446,14.471,12.009,29.641,29.077,43.746
					c46.319,38.28,130.18,54.203,187.31,35.564c0.564-0.184,1.103-0.381,1.657-0.57C325.37,340.896,247.803,336.565,205.924,302.191
					z"/>
			</g>
		</g>
	</g>
</g>
<g id="Pancake">
	<g id="Pancake_00000036963729314163859740000005357719582511755945_">
		<path style="fill:#FFBDA7;" d="M418.84,226.542c1.906-2.522,3.723-5.556,4.989-8.36c2.783-6.159,3.676-14.231,1.025-23.298
			c-1.374-4.698-4.988-7.7-9.512-10.163c-0.402-0.219-0.785-0.458-1.208-0.668c-1.117-0.554-2.29-1.06-3.487-1.532
			c-0.774-0.305-1.624-0.579-2.447-0.862c-0.44-0.151-0.88-0.304-1.328-0.446c-6.801-2.162-13.824-3.798-20.795-5.408
			c-38.663-8.928-72.495-24.784-104.072-48.89c-5.556-4.242-11.174-8.486-16.999-12.285c-0.81-0.529-1.629-1.045-2.448-1.526
			c-0.367-0.215-0.745-0.465-1.108-0.668c-1.338-0.748-2.692-1.444-4.046-2.027c-0.09-0.039-0.181-0.068-0.271-0.106
			c-4.996-2.099-10.244-3.114-15.131-1.91c-8.177,2.014-12.866,8.64-15.027,12.948c-1.734,3.455-3.449,7.815-4.452,17.475
			c-0.745,7.174-0.214,19.305,1.891,28.924c14.996,68.509,106.194,111.821,169.323,78.645c8.81-4.63,17.671-10.494,24.074-18.511
			C418.166,227.431,418.509,226.986,418.84,226.542z"/>
		<path style="opacity:0.5;fill:#FFFFFF;" d="M418.84,226.542c1.906-2.522,3.723-5.556,4.989-8.36
			c2.783-6.159,3.676-14.231,1.025-23.298c-1.374-4.698-4.988-7.7-9.512-10.163c-0.402-0.219-0.785-0.458-1.208-0.668
			c-1.117-0.554-2.29-1.06-3.487-1.532c-0.774-0.305-1.624-0.579-2.447-0.862c-0.44-0.151-0.88-0.304-1.328-0.446
			c-6.801-2.162-13.824-3.798-20.795-5.408c-38.663-8.928-72.495-24.784-104.072-48.89c-5.556-4.242-11.174-8.486-16.999-12.285
			c-0.81-0.529-1.629-1.045-2.448-1.526c-0.367-0.215-0.745-0.465-1.108-0.668c-1.338-0.748-2.692-1.444-4.046-2.027
			c-0.09-0.039-0.181-0.068-0.271-0.106c-4.996-2.099-10.244-3.114-15.131-1.91c-8.177,2.014-12.866,8.64-15.027,12.948
			c-1.734,3.455-3.449,7.815-4.452,17.475c-0.745,7.174-0.214,19.305,1.891,28.924c14.996,68.509,106.194,111.821,169.323,78.645
			c8.81-4.63,17.671-10.494,24.074-18.511C418.166,227.431,418.509,226.986,418.84,226.542z"/>
		<path style="opacity:0.4;fill:#F0997A;" d="M415.342,184.721c-0.402-0.219-0.785-0.458-1.208-0.668
			c-1.117-0.554-2.29-1.06-3.487-1.532c-0.774-0.305-1.624-0.579-2.447-0.862c-0.44-0.151-0.88-0.304-1.328-0.446
			c-4.846-1.54-9.805-2.809-14.777-3.997c-8.61,17.596-14.253,37.967,2.145,43.967c30.802,11.272-35.835,43.934-98.552,20.362
			c-62.717-23.572-71.586-79.035-73.163-90.096l-0.204-0.637c0.254,5.573,0.934,11.629,2.093,16.926
			c14.996,68.509,106.194,111.821,169.324,78.645c8.809-4.63,17.671-10.494,24.074-18.511c0.353-0.443,0.697-0.887,1.027-1.332
			c1.906-2.522,3.723-5.557,4.989-8.36c2.783-6.159,3.676-14.231,1.025-23.298C423.48,190.186,419.866,187.184,415.342,184.721z"/>
		<path style="fill:#C8856A;" d="M224.415,167.74c15.181,60.453,84.469,98.871,144.355,87.172c8.64-1.701,17.046-4.6,24.969-8.527
			c-7.732,4.303-16.132,7.401-24.776,9.417C308.79,269.114,237.404,229.576,224.415,167.74L224.415,167.74z"/>
		<path style="fill:#C8856A;" d="M282.005,126.916c-9.427-7.175-23.773-21.497-36.745-18.084
			c-17.562,4.621-14.707,34.195-12.149,46.708c13.497,66.019,101.847,108.913,162.158,76.171
			c11.62-6.308,35.595-22.767,28.193-39.171c-5.455-12.088-25.835-14.047-37.384-16.734
			C347.41,166.811,313.578,150.947,282.005,126.916z"/>
		<path style="fill:#FFBDA7;" d="M281.795,128.579c-9.171-6.899-23.666-21.018-35.934-17.282
			c-16.56,5.042-13.649,32.943-10.91,45.529c13.842,63.618,99.49,105.196,158.155,74.291c11.487-6.051,34.912-21.443,28.077-37.465
			c-5.063-11.869-25.078-13.957-36.25-16.621C346.671,167.905,313.211,152.212,281.795,128.579z"/>
		<path style="opacity:0.2;fill:#C8856A;" d="M384.932,177.029c-38.261-9.124-71.72-24.817-103.137-48.451
			c-9.171-6.899-23.666-21.018-35.934-17.282c-4.692,1.428-7.818,4.694-9.831,8.924c0.369,0.975,0.993,1.781,1.949,2.335
			c1.48,0.859,3.271,0.919,4.98,1.02c7.357,0.434,14.644,2.03,21.508,4.711c7.063,2.758,14.514,7.97,14.76,15.548
			c0.068,2.091-0.443,4.154-0.624,6.238c-0.704,8.096,3.757,16.043,10.116,21.103c6.359,5.061,14.383,7.59,22.39,8.978
			c8.007,1.388,16.163,1.739,24.191,3.002c9.754,1.535,19.294,4.421,28.262,8.552c5.068,2.334,10.292,5.423,12.49,10.551
			c2.72,6.347-0.3,14.064-5.588,18.505c-5.288,4.44-12.328,6.183-19.186,6.984c-13.643,1.592-27.654-0.059-40.553-4.779
			c-3.955-1.447-7.898-3.199-12.103-3.441c-5.453-0.314-8.393,2.24-9.265,5.813c31.973,17.948,71.848,22.58,103.748,5.775
			c11.487-6.051,34.912-21.443,28.077-37.465C416.119,181.782,396.104,179.693,384.932,177.029z"/>
	</g>
</g>
<g id="Lines_00000000927854162322242870000009961148577525402513_">
	<g id="Lines">
		<g>
			<path style="fill:#E0E0E0;" d="M244.047,92.947c-4.138-1.411-8.798-0.615-12.83,0.821c-4.112,1.465-7.869,3.962-10.941,7.054
				c-6.479,6.52-9.776,15.578-8.8,24.688c0.054,0.507,0.658,0.882,0.849,0.233c2.424-8.243,4.888-16.592,11.079-22.879
				c2.807-2.851,6.227-5.069,9.938-6.559c3.453-1.387,7.013-1.634,10.619-2.33C244.361,93.897,244.455,93.086,244.047,92.947z"/>
			<path style="fill:#E0E0E0;" d="M227.665,86.144c-4.64-1.701-10.266-0.601-14.464,1.835c-2.017,1.171-3.852,2.722-5.295,4.551
				c-1.52,1.925-2.823,4.18-3.009,6.648c-0.027,0.353,0.258,1.002,0.699,0.673c0.936-0.699,1.561-1.66,2.281-2.58
				c0.753-0.963,1.566-1.876,2.462-2.709c1.526-1.421,3.085-2.704,4.871-3.784c3.778-2.285,7.951-3.184,12.255-3.915
				C227.71,86.82,227.984,86.261,227.665,86.144z"/>
		</g>
		<g>
			<path style="fill:#E0E0E0;" d="M409.418,166.737c4.138-1.411,8.798-0.615,12.83,0.821c4.112,1.465,7.869,3.962,10.941,7.054
				c6.479,6.52,9.776,15.578,8.8,24.688c-0.054,0.507-0.658,0.882-0.849,0.233c-2.424-8.243-4.888-16.592-11.079-22.879
				c-2.807-2.851-6.227-5.068-9.938-6.559c-3.453-1.387-7.013-1.634-10.619-2.331C409.105,167.687,409.011,166.876,409.418,166.737z
				"/>
			<path style="fill:#E0E0E0;" d="M425.8,159.935c4.64-1.701,10.266-0.601,14.464,1.835c2.017,1.171,3.852,2.723,5.295,4.551
				c1.52,1.925,2.823,4.18,3.009,6.648c0.027,0.353-0.258,1.003-0.699,0.673c-0.936-0.699-1.561-1.66-2.281-2.58
				c-0.753-0.963-1.566-1.876-2.462-2.709c-1.526-1.421-3.085-2.704-4.871-3.784c-3.778-2.285-7.951-3.184-12.255-3.915
				C425.755,160.611,425.482,160.052,425.8,159.935z"/>
		</g>
	</g>
</g>
<g id="Sparkles">
	<g id="Sparkles_00000049181685903041275740000002618356516005985701_">
		<path id="Sparkles_00000088120258810781536160000017465840340169653678_" style="fill:#E0E0E0;" d="M43.475,254.691l-6.197-0.685
			c-0.597-0.065-1.07-0.548-1.124-1.147l-0.713-7.904c-0.019-0.217-0.2-0.382-0.417-0.382c-0.217,0-0.399,0.165-0.417,0.382
			l-0.713,7.906c-0.055,0.597-0.527,1.081-1.124,1.146l-6.195,0.685c-0.212,0.025-0.372,0.203-0.372,0.417
			c0,0.214,0.16,0.393,0.372,0.417l6.195,0.685c0.597,0.065,1.07,0.548,1.124,1.147l0.713,7.904c0.018,0.217,0.2,0.382,0.417,0.382
			c0.217,0,0.399-0.164,0.417-0.382l0.713-7.906c0.054-0.597,0.527-1.081,1.124-1.145l6.197-0.685
			c0.212-0.025,0.372-0.203,0.372-0.417C43.847,254.894,43.687,254.715,43.475,254.691z M37.334,255.394
			c-1.06,0.117-1.899,0.973-1.994,2.036l-0.316,3.5l-0.316-3.499c-0.095-1.065-0.935-1.92-1.995-2.037l-2.593-0.286l2.593-0.286
			c1.06-0.117,1.899-0.972,1.995-2.036v-0.002l0.316-3.498l0.316,3.498c0.095,1.065,0.935,1.921,1.994,2.037l2.594,0.286
			L37.334,255.394z M465.707,240.374l-5.387-0.596c-0.574-0.064-1.028-0.527-1.079-1.102l-0.62-6.874
			c-0.012-0.128-0.119-0.226-0.247-0.226c-0.128,0-0.235,0.098-0.247,0.226l-0.62,6.874c-0.051,0.575-0.506,1.039-1.081,1.102
			l-5.387,0.596c-0.126,0.014-0.221,0.12-0.221,0.247c0,0.126,0.096,0.233,0.221,0.246l5.387,0.595
			c0.574,0.063,1.029,0.527,1.081,1.103l0.62,6.874c0.012,0.128,0.119,0.225,0.247,0.225c0.128,0,0.235-0.097,0.247-0.225
			l0.62-6.874c0.051-0.576,0.506-1.039,1.079-1.103l5.387-0.595c0.125-0.013,0.22-0.12,0.22-0.246
			C465.927,240.494,465.833,240.387,465.707,240.374z M460.264,240.969c-0.807,0.089-1.446,0.742-1.519,1.551l-0.372,4.132
			l-0.372-4.132c-0.073-0.809-0.712-1.462-1.52-1.551l-3.155-0.348l3.155-0.349c0.808-0.089,1.447-0.741,1.52-1.551l0.372-4.132
			l0.372,4.132c0.073,0.81,0.712,1.461,1.519,1.551l3.156,0.349L460.264,240.969z M355.164,105.043l-5.598-0.619
			c-0.54-0.058-0.967-0.495-1.015-1.036l-0.644-7.141c-0.017-0.196-0.181-0.345-0.377-0.345c-0.196,0-0.36,0.149-0.377,0.345
			l-0.644,7.142c-0.05,0.54-0.476,0.976-1.015,1.035l-5.597,0.619c-0.192,0.022-0.337,0.183-0.337,0.377
			c0,0.193,0.145,0.355,0.337,0.377l5.597,0.619c0.54,0.058,0.967,0.495,1.015,1.036l0.644,7.141
			c0.017,0.196,0.181,0.345,0.377,0.345c0.196,0,0.36-0.149,0.377-0.345l0.644-7.142c0.049-0.54,0.476-0.976,1.015-1.035
			l5.598-0.619c0.192-0.022,0.336-0.184,0.336-0.377C355.501,105.227,355.356,105.065,355.164,105.043z M349.482,105.662
			c-0.896,0.099-1.605,0.822-1.686,1.721l-0.267,2.958l-0.267-2.957c-0.081-0.9-0.79-1.623-1.686-1.722l-2.192-0.242l2.192-0.242
			c0.896-0.099,1.605-0.822,1.686-1.72v-0.001l0.267-2.957l0.267,2.957c0.081,0.9,0.79,1.623,1.686,1.722l2.192,0.242
			L349.482,105.662z M99.625,62.34l-6.281-0.694c-0.606-0.066-1.085-0.556-1.139-1.163l-0.723-8.011
			c-0.019-0.22-0.203-0.387-0.423-0.387c-0.22,0-0.404,0.167-0.423,0.387l-0.723,8.013c-0.056,0.605-0.534,1.095-1.139,1.161
			l-6.279,0.694c-0.215,0.025-0.378,0.206-0.378,0.423c0,0.217,0.162,0.398,0.378,0.423l6.279,0.694
			c0.606,0.066,1.085,0.556,1.139,1.162l0.723,8.012c0.019,0.22,0.203,0.387,0.423,0.387c0.22,0,0.404-0.167,0.423-0.387
			l0.723-8.013c0.055-0.605,0.534-1.095,1.139-1.161l6.281-0.694c0.215-0.025,0.377-0.206,0.377-0.423
			C100.002,62.546,99.84,62.365,99.625,62.34z M93.595,63.077c-1.163,0.128-2.084,1.068-2.189,2.234l-0.347,3.842l-0.347-3.84
			c-0.104-1.168-1.026-2.108-2.189-2.236l-2.847-0.314l2.847-0.314c1.163-0.128,2.085-1.067,2.189-2.234v-0.002l0.347-3.84
			l0.347,3.84c0.105,1.169,1.026,2.108,2.189,2.236l2.846,0.314L93.595,63.077z"/>
		<path id="Sparkles_00000114766596995763425910000013744818433911122570_" style="fill:#F0F0F0;" d="M77.239,206.389l-9.68-1.07
			c-1.03-0.12-1.85-0.95-1.94-1.98l-1.11-12.35c-0.02-0.23-0.22-0.41-0.45-0.41c-0.23,0-0.42,0.18-0.44,0.41l-1.11,12.35
			c-0.1,1.03-0.91,1.86-1.94,1.98l-9.68,1.07c-0.23,0.02-0.4,0.21-0.4,0.44c0,0.23,0.17,0.42,0.4,0.44l9.68,1.07
			c1.03,0.12,1.84,0.95,1.94,1.98l1.11,12.35c0.02,0.23,0.21,0.41,0.44,0.41c0.23,0,0.43-0.18,0.45-0.41l1.11-12.35
			c0.09-1.03,0.91-1.86,1.94-1.98l9.68-1.07c0.22-0.02,0.39-0.21,0.39-0.44C77.629,206.599,77.459,206.409,77.239,206.389z
			 M67.459,207.449c-1.45,0.17-2.6,1.34-2.73,2.79l-0.67,7.42l-0.67-7.42c-0.13-1.45-1.28-2.62-2.73-2.79l-5.66-0.62l5.66-0.63
			c1.45-0.16,2.6-1.33,2.73-2.78l0.67-7.42l0.67,7.42c0.13,1.45,1.28,2.62,2.73,2.78l5.67,0.63L67.459,207.449z M441.554,76.455
			l-9.68-1.07c-1.03-0.11-1.85-0.95-1.94-1.98l-1.11-12.35c-0.03-0.23-0.22-0.4-0.45-0.4c-0.23,0-0.42,0.17-0.44,0.4l-1.12,12.35
			c-0.09,1.03-0.91,1.87-1.94,1.98l-9.67,1.07c-0.23,0.02-0.4,0.22-0.4,0.44c0,0.23,0.17,0.42,0.4,0.45l9.67,1.06
			c1.03,0.12,1.85,0.95,1.94,1.98l1.12,12.35c0.02,0.23,0.21,0.41,0.44,0.41c0.23,0,0.42-0.18,0.45-0.41l1.11-12.35
			c0.09-1.03,0.91-1.86,1.94-1.98l9.68-1.06c0.22-0.03,0.39-0.22,0.39-0.45C441.944,76.675,441.774,76.475,441.554,76.455z
			 M431.774,77.525c-1.45,0.16-2.6,1.33-2.73,2.78l-0.67,7.42l-0.67-7.42c-0.13-1.45-1.28-2.62-2.73-2.78l-5.67-0.63l5.67-0.62
			c1.45-0.16,2.6-1.34,2.73-2.79l0.67-7.42l0.67,7.42c0.13,1.45,1.28,2.63,2.73,2.79l5.67,0.62L431.774,77.525z M310.482,55.793
			l-7.99-0.89c-0.85-0.09-1.52-0.78-1.6-1.63l-0.92-10.19c-0.01-0.19-0.17-0.33-0.36-0.33c-0.19,0-0.35,0.14-0.37,0.33l-0.92,10.19
			c-0.07,0.85-0.75,1.54-1.6,1.63l-7.98,0.89c-0.19,0.02-0.33,0.17-0.33,0.36s0.14,0.35,0.33,0.37l7.98,0.88
			c0.85,0.09,1.53,0.78,1.6,1.63l0.92,10.19c0.02,0.19,0.18,0.34,0.37,0.34c0.19,0,0.35-0.15,0.36-0.34l0.92-10.19
			c0.08-0.85,0.75-1.54,1.6-1.63l7.99-0.88c0.18-0.02,0.32-0.18,0.32-0.37S310.662,55.813,310.482,55.793z M302.412,56.673
			c-1.19,0.13-2.14,1.1-2.25,2.3l-0.55,6.12l-0.55-6.12c-0.11-1.2-1.06-2.17-2.26-2.3l-4.67-0.52l4.67-0.52
			c1.2-0.13,2.15-1.09,2.26-2.29l0.55-6.13l0.55,6.13c0.11,1.2,1.06,2.16,2.25,2.29l4.68,0.52L302.412,56.673z M152.809,97.181
			l-5.59-0.61c-0.54-0.06-0.97-0.5-1.02-1.04l-0.64-7.14c-0.02-0.2-0.18-0.35-0.38-0.35s-0.36,0.15-0.38,0.35l-0.64,7.14
			c-0.05,0.54-0.48,0.98-1.02,1.04l-5.59,0.61c-0.2,0.03-0.34,0.19-0.34,0.38c0,0.19,0.14,0.36,0.34,0.38l5.59,0.62
			c0.54,0.06,0.97,0.49,1.02,1.03l0.64,7.14c0.02,0.2,0.18,0.35,0.38,0.35s0.36-0.15,0.38-0.35l0.64-7.14
			c0.05-0.54,0.48-0.97,1.02-1.03l5.59-0.62c0.2-0.02,0.34-0.19,0.34-0.38C153.149,97.371,153.009,97.211,152.809,97.181z
			 M147.129,97.801c-0.89,0.1-1.6,0.83-1.68,1.72l-0.27,2.96l-0.27-2.95c-0.08-0.9-0.79-1.63-1.68-1.73l-2.2-0.24l2.2-0.24
			c0.89-0.1,1.6-0.82,1.68-1.72l0.27-2.96l0.27,2.96c0.08,0.9,0.79,1.62,1.68,1.72l2.19,0.24L147.129,97.801z"/>
	</g>
</g>
</svg>
