<?xml version="1.0" encoding="utf-8"?>
<!-- Generator: Adobe Illustrator 27.5.0, SVG Export Plug-In . SVG Version: 6.00 Build 0)  -->
<svg version="1.1" xmlns="http://www.w3.org/2000/svg" xmlns:xlink="http://www.w3.org/1999/xlink" x="0px" y="0px"
	 viewBox="0 0 500 500" style="enable-background:new 0 0 500 500;" xml:space="preserve">
<g id="Background_Simple">
	<g>
		<path style="fill:#92E3A9;" d="M459.548,338.141c-20.036,40.135-55.6,81.727-98.92,89.68
			c-65.455,12.023-80.264,66.011-191.971,45.965c-17.417-3.124-33.257-7.956-47.567-14.211c-7.693-3.361-14.944-7.146-21.75-11.301
			C37.529,410.634,11.742,342.45,17.753,275.496c7.892-88.061,69.641-122.323,109.414-141.903
			c39.774-19.58,96.387-108.417,206.365-89.65c16.766,2.869,33.245,7.609,48.897,14.576c35.732,15.887,70.317,45.115,87.579,83.416
			c1.296,2.877,2.507,5.806,3.645,8.778C495.84,208.846,486.866,283.426,459.548,338.141z"/>
		<path style="opacity:0.8;fill:#FFFFFF;" d="M459.548,338.141c-20.036,40.135-55.6,81.727-98.92,89.68
			c-65.455,12.023-80.264,66.011-191.971,45.965c-17.417-3.124-33.257-7.956-47.567-14.211c-7.693-3.361-14.944-7.146-21.75-11.301
			C37.529,410.634,11.742,342.45,17.753,275.496c7.892-88.061,69.641-122.323,109.414-141.903
			c39.774-19.58,96.387-108.417,206.365-89.65c16.766,2.869,33.245,7.609,48.897,14.576c35.732,15.887,70.317,45.115,87.579,83.416
			c1.296,2.877,2.507,5.806,3.645,8.778C495.84,208.846,486.866,283.426,459.548,338.141z"/>
	</g>
</g>
<g id="Hat">
	<g>
		<path style="fill:none;stroke:#263238;stroke-linecap:round;stroke-linejoin:round;stroke-miterlimit:10;" d="M322.314,170.915
			c-38.855-13.005-65.72-37.393-60.004-54.472l-10.288,28.442c-5.716,17.079,21.148,41.467,60.004,54.472
			c38.855,13.005,74.988,9.702,80.705-7.377l10.287-28.442C397.302,180.617,361.17,183.92,322.314,170.915z"/>
		<path style="fill:none;stroke:#263238;stroke-linecap:round;stroke-linejoin:round;stroke-miterlimit:10;" d="M328.081,16.602
			c33.471,6.914,51.29,13.628,67.561,10.632c17.939-3.303,50.983-8.969,69.863,30.682"/>
		<path style="fill:none;stroke:#263238;stroke-linecap:round;stroke-linejoin:round;stroke-miterlimit:10;" d="M468.974,65.973
			c13.405,34.997-0.385,57.683-22.349,78.334c-23.605,22.183-45.317,23.594-45.317,23.594l-0.492-0.182
			c-9.889,13.353-43.062,15.052-78.501,3.196c-38.86-13.01-65.726-37.396-60.006-54.469c0,0,0.011-0.021,0.021-0.064
			c0.011-0.021,0.021-0.053,0.021-0.075c0.417-1.379,3.71-12.775,0.171-22.514c-3.774-10.391-13.214-43.436-4.725-58.061
			c8.499-14.635,18.89-28.8,59.483-21.253"/>
		<path style="fill:none;stroke:#263238;stroke-linecap:round;stroke-linejoin:round;stroke-miterlimit:10;" d="M295.666,141.049
			c-0.686-6.067-0.977-13.006-0.249-19.995"/>
		<path style="fill:none;stroke:#263238;stroke-linecap:round;stroke-linejoin:round;stroke-miterlimit:10;" d="M299.579,160.59
			c0,0-1.705-5.343-3.036-13.297"/>
		<path style="fill:none;stroke:#263238;stroke-linecap:round;stroke-linejoin:round;stroke-miterlimit:10;" d="M320.371,66.281
			c10.299-15.92,28.279-13.181,37.055-9.733"/>
		<path style="fill:none;stroke:#263238;stroke-linecap:round;stroke-linejoin:round;stroke-miterlimit:10;" d="M330.375,172.659
			c0,0-21.641-44.114-17.063-84.066c0.565-4.933,1.486-9.206,2.687-12.898"/>
		<path style="fill:none;stroke:#263238;stroke-linecap:round;stroke-linejoin:round;stroke-miterlimit:10;" d="M404.453,158.509
			c0,0,7.491-17.895,17.895-31.212s11.653-4.578,6.242,2.081"/>
		<path style="fill:none;stroke:#263238;stroke-linecap:round;stroke-linejoin:round;stroke-miterlimit:10;" d="M364.202,165.813
			c-3.202-4.17-6.324-9.284-8.441-15.212"/>
		<path style="fill:none;stroke:#263238;stroke-linecap:round;stroke-linejoin:round;stroke-miterlimit:10;" d="M376.986,178.485
			c0,0-4.468-3.103-9.541-8.767"/>
		<path style="fill:none;stroke:#263238;stroke-linecap:round;stroke-linejoin:round;stroke-miterlimit:10;" d="M270.746,125.654
			c1.489,7.921,4.405,17.571,10.105,24.116"/>
		<path style="fill:none;stroke:#263238;stroke-linecap:round;stroke-linejoin:round;stroke-miterlimit:10;" d="M269.198,111.898
			c0,0,0.057,3.401,0.693,8.341"/>
	</g>
</g>
<g id="Spoon">
	<g>
		<path style="fill:none;stroke:#263238;stroke-linecap:round;stroke-linejoin:round;stroke-miterlimit:10;" d="M275.917,430.841
			c16.201,11.866,24.714,26.659,19.962,37.423c-6.336,14.351-33.854,16.103-61.464,3.914c-17.401-7.682-35.802-21.33-44.117-33.379
			c-5.646-8.18-13.435-14.642-22.527-18.656L21.259,355.459c-3.9-1.722-5.665-6.279-3.944-10.178l0,0
			c1.722-3.9,6.279-5.665,10.178-3.944l146.512,64.684c9.093,4.014,19.116,5.416,28.964,4.077
			c14.506-1.973,36.989,2.429,54.39,10.111c3.838,1.694,7.476,3.569,10.878,5.58"/>
		<path style="fill:none;stroke:#263238;stroke-linecap:round;stroke-linejoin:round;stroke-miterlimit:10;" d="M186.816,429.593
			c-4.999-5.457-11.085-9.844-17.904-12.855L44.834,361.959"/>
		<path style="fill:none;stroke:#263238;stroke-linecap:round;stroke-linejoin:round;stroke-miterlimit:10;" d="M288.626,473.239
			c-11.707,5.976-32.363,4.676-53.07-4.466c-14.822-6.544-30.369-17.415-39.791-27.94"/>
	</g>
</g>
<g id="Frying_Pan">
	<g>
		<path style="fill:#5C5C5C;stroke:#263238;stroke-linecap:round;stroke-linejoin:round;stroke-miterlimit:10;" d="M337.688,229.723
			c-1.775,4.387-0.866,9.399,2.191,13.012c4.2,4.966,11.308,12.121,18.093,13.126c10.533,1.561,8.973-5.462,10.923-8.583
			c1.951-3.121,14.044-38.231,46.034-56.957c26.884-15.737,63.688-29.821,74.75-33.916c1.983-0.734,3.279-2.652,3.204-4.765
			c-0.086-2.415-0.279-5.317-0.711-6.182c-0.78-1.561-4.681-4.291-8.193-4.291c-3.511,0-47.984,12.484-86.216,36.281
			C365.767,197.363,343.608,215.093,337.688,229.723z"/>
		<path style="fill:#263238;stroke:#263238;stroke-linecap:round;stroke-linejoin:round;stroke-miterlimit:10;" d="M492.172,145.458
			c-0.156-0.312-0.441-0.671-0.818-1.045c-9.993,3.442-28.805,10.786-60.43,26.013c-52.666,25.358-82.315,60.078-83.875,67.1
			c-0.014,0.063-0.017,0.13-0.029,0.193c1.836,0.62,3.584,1.377,4.799,2.273c3.956,2.915,4.372,5.83,6.038,10.826
			c1.232,3.697,4.401,4.654,7.147,4.23c2.849-1.839,2.585-5.678,3.892-7.769c1.951-3.121,14.044-38.231,46.034-56.957
			c26.884-15.737,63.688-29.821,74.75-33.916c1.983-0.734,3.279-2.652,3.204-4.765C492.797,149.225,492.604,146.323,492.172,145.458
			z"/>
		<path style="fill:#878787;stroke:#263238;stroke-linecap:round;stroke-linejoin:round;stroke-miterlimit:10;" d="M357.856,250.818
			c-1.666-4.997-2.082-7.911-6.038-10.826c-3.956-2.915-13.533-4.372-13.533-4.372l-1.44-0.075c0.244,2.602,1.286,5.125,3.033,7.191
			c4.2,4.966,11.308,12.121,18.093,13.126c3.475,0.515,5.629,0.092,7.032-0.813C362.257,255.472,359.089,254.514,357.856,250.818z"
			/>
		<path style="fill:#B5B5B5;stroke:#263238;stroke-linecap:round;stroke-linejoin:round;stroke-miterlimit:10;" d="M319.08,270.235
			c0,0,11.313-19.896,24.577-28.479l10.923,4.291c0,0-14.824,13.654-24.187,43.303L319.08,270.235z"/>
		<path style="fill:#878787;stroke:#263238;stroke-linecap:round;stroke-linejoin:round;stroke-miterlimit:10;" d="M354.581,246.048
			l0.857,5.505c0,0-21.014,23.034-27.277,48.897l-0.404-22.428C327.757,278.021,343.217,249.231,354.581,246.048z"/>
		<path style="fill:#263238;stroke:#263238;stroke-linecap:round;stroke-linejoin:round;stroke-miterlimit:10;" d="M331.996,283.814
			c-17.599-19.058-85.422-12.954-159.502,15.542c-73.619,28.319-127.826,68.907-128.783,94.869
			c1.104,1.535,6.135,7.751,18.965,13.854c14.766,7.023,31.258,9.533,47.511,7.744c27.797-3.061,61.877-11.574,97.399-25.238
			c34.821-13.395,65.296-29.534,87.851-45.573c14.387-10.23,25.613-24.381,31.856-40.894
			C331.408,293.234,331.931,285.397,331.996,283.814z"/>
		
			<ellipse transform="matrix(0.9333 -0.359 0.359 0.9333 -106.9753 88.6706)" style="fill:#5C5C5C;stroke:#263238;stroke-linecap:round;stroke-linejoin:round;stroke-miterlimit:10;" cx="185.261" cy="332.369" rx="155.659" ry="48.873"/>
		<path style="fill:#7A7A7A;stroke:#263238;stroke-linecap:round;stroke-linejoin:round;stroke-miterlimit:10;" d="M178.638,305.736
			c-71.461,27.488-121.535,70.194-111.845,95.386c0.324,0.841,0.715,1.651,1.162,2.432c30.339,4.048,80.939-4.832,134.851-25.57
			c58.949-22.675,105.456-53.22,122.143-77.821C313.353,276.47,248.729,278.774,178.638,305.736z"/>
		
			<ellipse transform="matrix(0.9333 -0.359 0.359 0.9333 -106.9753 88.6706)" style="fill:none;stroke:#8C8C8C;stroke-width:2;stroke-linecap:round;stroke-linejoin:round;stroke-miterlimit:10;" cx="185.261" cy="332.369" rx="155.659" ry="48.873"/>
	</g>
</g>
<g id="Shadow">
	<path style="fill:#263238;stroke:#263238;stroke-linecap:round;stroke-linejoin:round;stroke-miterlimit:10;" d="M79.466,377.759
		c2.703,7.327,40.194,0.245,83.738-15.818c43.544-16.063,76.653-35.025,73.95-42.352c-2.703-7.327-40.194-0.245-83.738,15.818
		C109.871,351.47,76.763,370.432,79.466,377.759z"/>
</g>
<g id="Pancake">
	<g>
		<g>
			<path style="fill:#FFFFFF;stroke:#263238;stroke-linecap:round;stroke-linejoin:round;stroke-miterlimit:10;" d="M193.654,178.58
				c0,0-25.872-2.357-46.316-40.671c-18.97-35.551-54.77-71.07-78.171-47.146s21.109,100.129,84.063,132.835
				c81.174,42.172,102.722,7.576,101.756-6.213C253.173,191.48,207.071,181.682,193.654,178.58z"/>
			<path style="fill:#92E3A9;" d="M253.921,212.074c-7.205-21.953-47.811-30.614-60.267-33.494c0,0-25.872-2.357-46.316-40.671
				c-13.767-25.8-36.397-51.576-56.72-54.634c-3.669,0.515-15.161,3.363-18.573,18.973c-4.079,18.661,13.648,44.595,27.539,64.76
				c13.891,20.165,61.312,58.189,98.585,65.417C228.232,238.255,253.811,230.004,253.921,212.074z"/>
			<path style="fill:#FFFFFF;" d="M216.777,224.464c-0.09,1.722,3.559,3.312,8.15,3.552c4.591,0.24,8.386-0.961,8.476-2.682
				c0.09-1.722-3.559-3.312-8.15-3.552C220.662,221.541,216.867,222.742,216.777,224.464z"/>
			<path style="fill:#FFFFFF;" d="M184.682,216.525c-0.461,1.053,1.555,2.953,4.504,4.243c2.948,1.291,5.712,1.483,6.173,0.43
				c0.461-1.053-1.555-2.953-4.504-4.243C187.907,215.665,185.143,215.472,184.682,216.525z"/>
			<path style="fill:#FFFFFF;" d="M227.649,203.908c-0.029,0.228,1.797,0.645,4.078,0.932c2.281,0.287,4.153,0.334,4.182,0.106
				c0.029-0.228-1.797-0.645-4.078-0.932C229.55,203.728,227.678,203.68,227.649,203.908z"/>
			<path style="fill:#FFFFFF;" d="M210.37,205.713c-0.171,0.668,1.316,1.625,3.321,2.137c2.005,0.512,3.768,0.385,3.938-0.283
				c0.171-0.668-1.316-1.625-3.32-2.137C212.304,204.918,210.54,205.045,210.37,205.713z"/>
			<path style="fill:#FFFFFF;" d="M196.789,185.773c-0.238,0.647,1.492,1.881,3.864,2.755c2.373,0.874,4.489,1.059,4.728,0.412
				c0.239-0.647-1.492-1.881-3.864-2.755C199.145,185.311,197.028,185.126,196.789,185.773z"/>
			<path style="fill:#FFFFFF;" d="M95.473,103.978c-1.376,1.545-5.136,0.441-8.396-2.465c-3.261-2.906-4.788-6.514-3.412-8.058
				c1.376-1.545,5.136-0.441,8.396,2.465C95.322,98.826,96.85,102.434,95.473,103.978z"/>
			<path style="fill:#FFFFFF;" d="M108.131,98.533c-1.071,1.201-4.025,0.315-6.6-1.979c-2.574-2.294-3.793-5.128-2.723-6.329
				c1.071-1.201,4.025-0.316,6.6,1.979C107.983,94.498,109.202,97.332,108.131,98.533z"/>
			<path style="fill:#FFFFFF;" d="M121.687,121.485c-0.841,0.944-3.123,0.283-5.097-1.475c-1.974-1.759-2.892-3.95-2.05-4.894
				s3.123-0.283,5.097,1.475C121.61,118.35,122.528,120.541,121.687,121.485z"/>
			<path style="fill:#FFFFFF;" d="M116.569,150.375c-0.688,0.772-3.055-0.214-5.286-2.202c-2.231-1.988-3.482-4.226-2.793-4.998
				c0.688-0.772,3.055,0.213,5.286,2.202C116.006,147.365,117.257,149.603,116.569,150.375z"/>
			<path style="fill:#FFFFFF;" d="M107.025,164.041c-1.759,1.974-7.358-0.146-12.507-4.734c-5.149-4.588-7.896-9.908-6.138-11.881
				c1.759-1.974,7.358,0.146,12.507,4.734C106.036,156.748,108.784,162.068,107.025,164.041z"/>
			<path style="fill:#FFFFFF;" d="M160.102,183.281c-0.379,0.576-2.087,0.122-3.816-1.015c-1.729-1.136-2.823-2.525-2.444-3.101
				c0.379-0.576,2.087-0.122,3.816,1.014C159.386,181.316,160.48,182.704,160.102,183.281z"/>
			<path style="fill:none;stroke:#263238;stroke-linecap:round;stroke-linejoin:round;stroke-miterlimit:10;" d="M193.654,178.58
				c0,0-25.872-2.357-46.316-40.671c-18.97-35.551-54.77-71.07-78.171-47.146s21.109,100.129,84.063,132.835
				c81.174,42.172,102.722,7.576,101.756-6.213C253.173,191.48,207.071,181.682,193.654,178.58z"/>
		</g>
		<g>
			<path style="fill:none;stroke:#263238;stroke-linecap:round;stroke-linejoin:round;stroke-miterlimit:10;" d="M94.549,193.015
				c4.226,4.185,8.898,8.443,14.058,12.709"/>
			<path style="fill:none;stroke:#263238;stroke-linecap:round;stroke-linejoin:round;stroke-miterlimit:10;" d="M57.23,137.974
				c0,0,7.128,23.721,33.867,51.538"/>
			<path style="fill:none;stroke:#263238;stroke-linecap:round;stroke-linejoin:round;stroke-miterlimit:10;" d="M47.005,142.988
				c0,0,14.967,29.182,26.376,41.477"/>
			<path style="fill:none;stroke:#263238;stroke-linecap:round;stroke-linejoin:round;stroke-miterlimit:10;" d="M270.197,210.215
				c0.714,2.678,0.747,5.521-0.11,8.522"/>
			<path style="fill:none;stroke:#263238;stroke-linecap:round;stroke-linejoin:round;stroke-miterlimit:10;" d="M226.822,180.818
				c0,0,29.381,8.154,40.075,22.751"/>
			<path style="fill:none;stroke:#263238;stroke-linecap:round;stroke-linejoin:round;stroke-miterlimit:10;" d="M264.501,191.471
				c0,0,23.701,12.565,19.371,27.46"/>
		</g>
	</g>
</g>
</svg>
